<?xml version="1.0" ?><svg id="Layer_1" style="enable-background:new 0 0 64 64;" version="1.1" viewBox="0 0 64 64" xml:space="preserve" xmlns="http://www.w3.org/2000/svg" xmlns:xlink="http://www.w3.org/1999/xlink"><style type="text/css">
	.st0{fill:#231F20;}
</style><path class="st0" d="M29.9,16.1c0.2,0.2,0.3,0.5,0.3,0.7s-0.1,0.5-0.3,0.7L13.6,33.8h39.3c0.6,0,1,0.4,1,1s-0.4,1-1,1H13.6  l16.3,16.3c0.2,0.2,0.3,0.5,0.3,0.7s-0.1,0.5-0.3,0.7c-0.4,0.4-1,0.4-1.4,0l-18-18c-0.1-0.1-0.2-0.2-0.2-0.3c-0.1-0.2-0.1-0.5,0-0.8  c0.1-0.1,0.1-0.2,0.2-0.3l18-18C28.8,15.7,29.5,15.7,29.9,16.1z"/></svg>